#!OML:ASF E:/inclinewalkrobotboard/Project1/Captureday1/Session1/subject1.ASF
:FULLY-SPECIFIED
:DEGREES
76
root 0 0 0 85.6251864973278 -33.18838118231844 -56.10994349617819
lowerback -11.445198496525236 9.709972770847717 14.190638186491954
upperback -20.789929353938124 12.309005123476048 3.1265061897968986
thorax -15.223838053066746 4.232530246884135 -3.7837865586470416
lowerneck -8.948493055926019 11.970379999238144 6.242592516586222
upperneck 10.157522151802514 14.266302828427994 9.160542434985143
head 4.526217061041422 7.72197047968692 2.7914658240771644
rclavicle 9.404499104617996E-15 7.860419069535086E-15
rhumerus 33.846047250231635 -50.104055517361715 -14.639892383873722
rradius 19.910324242890155
rwrist 40.37148789112298
rhand 0.5703418585401479 2.325655354614285
rfingers 7.125020000000066
rthumb 26.137343140388502 -25.863448722669684
lclavicle 8.601201664846328E-16 2.046869735987624E-15
lhumerus -7.174250548777787 12.984672769415013 -4.2214708572287165
lradius 20.90556920555351
lwrist -38.92263849425869
lhand 0.5149854163915812 34.35548616911701
lfingers 7.125020000000039
lthumb 26.054018265810914 62.48413936903941
rfemur 206.38671345877248 -182.70967506266643 -174.30096141778426
rtibia 56.748697118326945
rfoot 58.33857078227318 -31.026564398314314
rtoes 15.771672254243764
lfemur -54.30791589581328 25.557754117946807 21.300809772757702
ltibia 22.99045269524872
lfoot -66.1074961731178 8.913768459666699
ltoes 60.370347328725586
77
root 0 0 0 85.62129257371168 -33.186477338438635 -56.10701350645139
lowerback -11.44352768196149 9.710214500070482 14.193966228843605
upperback -20.792165843232766 12.309336700920854 3.1278183184198505
thorax -15.227227955155023 4.232213415110075 -3.7835643253382036
lowerneck -8.945706720762415 11.971416837881966 6.241874699782153
upperneck 10.156762030930032 14.26789799879213 9.163515127218538
head 4.5252352649402106 7.722758883585614 2.7924331692736235
rclavicle 9.417148662850287E-15 7.874970326149322E-15
rhumerus 33.807183060577444 -50.11126226683952 -14.588448632027365
rradius 19.908684928481282
rwrist 40.37803214844892
rhand 0.5691751392809641 2.324756850904797
rfingers 7.125020000000066
rthumb 26.13625139250874 -25.86494651173132
lclavicle 8.652468078308428E-16 2.0635193727953477E-15
lhumerus -7.207102499516672 12.987573293094906 -4.206166643969496
lradius 20.903855559105757
lwrist -38.931783923351276
lhand 0.5092045352674786 34.35147496565286
lfingers 7.125020000000039
lthumb 26.048554778816577 62.481264989974285
rfemur 206.3800673122226 -182.70467977221523 -174.29730904836782
rtibia 56.7439908127087
rfoot 58.32807630450495 -31.03199293875533
rtoes 15.774020540584209
lfemur -54.30807842780328 25.56015767470197 21.301384347152784
ltibia 22.992398177661773
lfoot -66.10347605883837 8.913287832876419
ltoes 60.37167304184174
78
root 0 0 0 85.63614550308677 -33.197225641849855 -56.119720571071255
lowerback -11.450076896557505 9.709162670721257 14.179858641385195
upperback -20.781298306081027 12.308070533595025 3.1222106180633
thorax -15.211642694700107 4.233745804606868 -3.7846452620200832
lowerneck -8.958410214071298 11.966164648799557 6.244774992761438
upperneck 10.163760220747736 14.259794675162595 9.150080970061342
head 4.531124791312385 7.71876748465083 2.788037908511532
rclavicle 9.404133963062276E-15 7.845355920255776E-15
rhumerus 34.01351720084426 -50.063161902545986 -14.821211056346797
rradius 19.944412619053995
rwrist 40.36542589486709
rhand 0.577085345240612 2.331448688705944
rfingers 7.125020000000066
rthumb 26.14418941523847 -25.854943062520338
lclavicle 8.984518541535906E-16 2.0205540049443555E-15
lhumerus -7.12218029072667 12.972542146081501 -4.237541356764133
lradius 20.926613530962765
lwrist -38.87187069480368
lhand 0.5276652471350587 34.373822976407936
lfingers 7.125020000000039
lthumb 26.065765872385064 62.4996080584412
rfemur 206.41684395174082 -182.7359443953917 -174.32679875529803
rtibia 56.771011162237116
rfoot 58.36486819208638 -30.995458144651025
rtoes 15.756367974864698
lfemur -54.29946336551578 25.54764957987358 21.29604104490341
ltibia 22.97644629627799
lfoot -66.11928457966849 8.902154791168414
ltoes 60.36439173354671
79
root 0 0 0 85.6293955941953 -33.190722522408414 -56.11318289468657
lowerback -11.44692408301703 9.709699026249648 14.18707503931618
upperback -20.787378857551445 12.308635539623918 3.1250539498149044
thorax -15.220058353538098 4.232873226983453 -3.784100532098593
lowerneck -8.951575269854047 11.969114956496096 6.243297069497385
upperneck 10.15871490314747 14.26437316270056 9.157228006074561
head 4.5274327907185095 7.721013883483104 2.7903926822657947
rclavicle 9.374752771400875E-15 7.844254945966767E-15
rhumerus 33.89921046258246 -50.091239951912144 -14.707515662450845
rradius 19.91864768582655
rwrist 40.362574879659604
rhand 0.5719788436611553 2.3277280322187694
rfingers 7.125020000000066
rthumb 26.138922447260327 -25.860578609917418
lclavicle 8.4795866777771515E-16 2.029200051375628E-15
lhumerus -7.135058444986157 12.980006569704695 -4.234799125428033
lradius 20.910705557535632
lwrist -38.90860257078061
lhand 0.5215409349849669 34.36203521442792
lfingers 7.125020000000039
lthumb 26.060193974870675 62.48933170878975
rfemur 206.39711172488296 -182.7195188301507 -174.30806801630632
rtibia 56.75610116834801
rfoot 58.349450294512025 -31.01648512818347
rtoes 15.766466750507453
lfemur -54.30882702448956 25.55401086857023 21.299991358003
ltibia 22.98712553380281
lfoot -66.11077109732449 8.91191440635066
ltoes 60.367754578429526
80
root 0 0 0 85.62518244255234 -33.18815993041227 -56.10988650581008
lowerback -11.445185071900898 9.70997596318832 14.19064175159923
upperback -20.78999912948627 12.309004850506911 3.126508149530016
thorax -15.22392583103726 4.232524115410999 -3.7837786813438186
lowerneck -8.948434740519431 11.970424980459912 6.242599088848946
upperneck 10.157396327820695 14.266372944894163 9.160578560296763
head 4.5261552597343675 7.7220039290088724 2.791477894749729
rclavicle 9.404329224190006E-15 7.861163457066163E-15
rhumerus 33.851652405918884 -50.103848014155815 -14.644404663088572
rradius 19.909910242552364
rwrist 40.37142484327751
rhand 0.570837934212558 2.325204096160773
rfingers 7.125020000000066
rthumb 26.137817195330292 -25.863784957915563
lclavicle 8.599609794123431E-16 2.047109614145126E-15
lhumerus -7.169736496198707 12.984833755268692 -4.2225296098044325
lradius 20.905633147329326
lwrist -38.92214561416915
lhand 0.5155099677031696 34.35586796790853
lfingers 7.125020000000039
lthumb 26.054518333815942 62.484452209437706
rfemur 206.3880670938205 -182.71056387397755 -174.30170035607108
rtibia 56.74922481305807
rfoot 58.33942609291604 -31.025204851834133
rtoes 15.771804945206348
lfemur -54.30812960580352 25.557693800609794 21.30087442047156
ltibia 22.990436840058273
lfoot -66.10771125866258 8.913749583084897
ltoes 60.3703496690917
81
root 0 0 0 85.62126424394609 -33.18630621722386 -56.10695240002599
lowerback -11.443504257782699 9.710218047440224 14.193992942517584
upperback -20.792231008874353 12.309337913352998 3.127827829108618
thorax -15.227314809855688 4.232206228150732 -3.783558893961202
lowerneck -8.94564420284743 11.971455909040355 6.241874558678976
upperneck 10.156668707203032 14.267958486788304 9.16356190970452
head 4.525184722169552 7.722787985769248 2.7924485588061683
rclavicle 9.417286030025818E-15 7.87575805380696E-15
rhumerus 33.81117658191043 -50.111105721358555 -14.591645438087838
rradius 19.908426067413142
rwrist 40.37796246342471
rhand 0.5695373020401271 2.324431201252147
rfingers 7.125020000000066
rthumb 26.136597855664434 -25.86518867838613
lclavicle 8.652996745656269E-16 2.063922023540289E-15
lhumerus -7.204189531186783 12.98773468526972 -4.206604412939335
lradius 20.903910342599758
lwrist -38.931483260912735
lhand 0.5094921076901955 34.35171391159653
lfingers 7.125020000000039
lthumb 26.048829212545897 62.48147171395077
rfemur 206.381072331258 -182.70533972596837 -174.2978900950268
rtibia 56.74437234140639
rfoot 58.32860614355984 -31.030980216435278
rtoes 15.774080700513704
lfemur -54.308238170790794 25.56012995756636 21.301437813052438
ltibia 22.992392999012427
lfoot -66.10360412113818 8.913259454890726
ltoes 60.371698168155596
